<?xml version="1.0" encoding="utf-8"?>
<!-- Generator: Adobe Illustrator 16.0.0, SVG Export Plug-In . SVG Version: 6.00 Build 0)  -->
<!DOCTYPE svg PUBLIC "-//W3C//DTD SVG 1.1//EN" "http://www.w3.org/Graphics/SVG/1.1/DTD/svg11.dtd">
<svg version="1.1" id="Layer_1" xmlns="http://www.w3.org/2000/svg" xmlns:xlink="http://www.w3.org/1999/xlink" x="0px" y="0px"
	 width="642px" height="171.829px" viewBox="0 0 642 171.829" enable-background="new 0 0 642 171.829" xml:space="preserve">
<g>
	<g>
		<polygon opacity="0.8" fill="#808080" points="137.456,171.829 64.229,98.594 98.587,64.228 171.829,137.459 		"/>
		<polygon fill="#36BFCB" points="171.829,34.369 34.359,171.829 0,137.459 137.456,0 		"/>
		<polygon opacity="0.8" fill="#808080" points="51.545,86.059 0,38.222 34.359,1.797 120.277,86.059 		"/>
	</g>
	<g>
		<polygon fill="#FFFFFF" points="283.283,50.587 267.072,50.587 250.953,72.569 234.827,50.587 218.603,50.587 242.795,83.723 
			216.404,119.69 232.791,119.69 250.953,94.869 269.102,119.69 285.503,119.69 259.098,83.723 		"/>
		<rect x="303.905" y="50.546" fill="#FFFFFF" width="13.793" height="69.144"/>
		<path fill="#FFFFFF" d="M371.774,64.366c6.08,0,11.468,1.847,16.161,5.526l9.233-10.09c-7.069-6.144-15.539-9.215-25.395-9.215
			c-9.777,0-17.942,3.312-24.56,9.929c-6.604,6.623-9.912,14.783-9.94,24.49c0,9.919,3.309,18.169,9.933,24.765
			c6.604,6.582,14.79,9.905,24.567,9.919c9.884,0,18.354-3.062,25.395-9.197v-32.26h-23.047v12.906l9.212-0.053v11.842
			c-2.673,1.965-6.49,2.944-11.481,2.944c-6.187,0-11.206-1.881-15.009-5.659c-3.797-3.779-5.72-8.876-5.748-15.292
			c0-5.995,1.888-10.911,5.684-14.751C360.562,66.333,365.574,64.394,371.774,64.366z"/>
		<polygon fill="#FFFFFF" points="468.425,93.9 425.115,50.587 420.499,50.587 420.499,119.69 434.327,119.69 434.327,76.853 
			477.17,119.69 482.238,119.69 482.238,50.587 468.425,50.587 		"/>
		<path fill="#FFFFFF" d="M531.678,50.587l-27.643,69.103h14.732l4.15-10.583h31.318l4.157,10.583l14.705-0.035l-27.607-69.067
			H531.678z M528.461,95.286l10.491-26.268l10.229,26.268H528.461z"/>
		<polygon fill="#FFFFFF" points="605.139,106.794 605.139,50.587 591.303,50.587 591.303,119.69 642,119.69 642,106.794 		"/>
	</g>
</g>
</svg>
