<?xml version="1.0" encoding="utf-8"?>
<!-- Generator: Adobe Illustrator 16.0.0, SVG Export Plug-In . SVG Version: 6.00 Build 0)  -->
<!DOCTYPE svg PUBLIC "-//W3C//DTD SVG 1.1//EN" "http://www.w3.org/Graphics/SVG/1.1/DTD/svg11.dtd">
<svg version="1.1" id="Layer_1" xmlns="http://www.w3.org/2000/svg" xmlns:xlink="http://www.w3.org/1999/xlink" x="0px" y="0px"
	 width="823.363px" height="220.37px" viewBox="0 0 823.363 220.37" enable-background="new 0 0 823.363 220.37"
	 xml:space="preserve">
<g>
	<g>
		<polygon opacity="0.8" fill="#808080" points="176.287,220.37 82.373,126.446 126.438,82.373 220.371,176.292 		"/>
		<polygon fill="#36BFCB" points="220.371,44.079 44.065,220.37 0,176.292 176.287,0 		"/>
		<polygon opacity="0.8" fill="#808080" points="66.106,109.828 0,46.9 44.065,1.231 154.255,109.828 		"/>
	</g>
	<g>
		<polygon fill="#808080" points="363.311,64.878 342.52,64.878 321.848,93.069 301.166,64.878 280.357,64.878 311.384,107.375 
			277.537,153.504 298.555,153.504 321.848,121.668 345.122,153.504 366.157,153.504 332.292,107.375 		"/>
		<rect x="389.758" y="64.826" fill="#808080" width="17.689" height="88.678"/>
		<path fill="#808080" d="M476.8,82.549c7.798,0,14.707,2.369,20.728,7.088l11.841-12.941c-9.066-7.879-19.929-11.819-32.568-11.819
			c-12.539,0-23.012,4.248-31.498,12.734c-8.469,8.493-12.712,18.959-12.748,31.405c0,12.724,4.243,23.307,12.739,31.766
			c8.469,8.439,18.968,12.698,31.507,12.721c12.676,0,23.538-3.926,32.568-11.8v-41.37h-29.558v16.552l11.814-0.065v15.185
			c-3.428,2.522-8.324,3.776-14.725,3.776c-7.934,0-14.371-2.412-19.25-7.261c-4.868-4.844-7.335-11.381-7.371-19.609
			c0-7.69,2.421-13.992,7.29-18.918C462.42,85.072,468.849,82.586,476.8,82.549z"/>
		<polygon fill="#808080" points="600.754,120.429 545.21,64.878 539.289,64.878 539.289,153.504 557.023,153.504 557.023,98.563 
			611.969,153.504 618.47,153.504 618.47,64.878 600.754,64.878 		"/>
		<path fill="#808080" d="M681.875,64.878l-35.451,88.626h18.895l5.322-13.577h40.166l5.332,13.577l18.859-0.047l-35.406-88.579
			H681.875z M677.749,122.201l13.456-33.686l13.119,33.686H677.749z"/>
		<polygon fill="#808080" points="776.089,136.967 776.089,64.878 758.345,64.878 758.345,153.504 823.363,153.504 823.363,136.967 
					"/>
	</g>
</g>
</svg>
